<svg xmlns="http://www.w3.org/2000/svg" viewBox="0 0 192 192" width="192" height="192">
  <rect width="192" height="192" rx="48" fill="#25D366"/>
  <path fill="white" d="M96 32C61.6 32 34 57.6 34 89.6c0 17.1 7.8 32.4 20.1 42.9L49 158l27.2-7.1c6.1 2 12.7 3.1 19.8 3.1 34.4 0 62-25.6 62-57.4C158 64.8 130.4 32 96 32zm32.4 75.8c-1.3 3.6-7.8 7-10.8 7.4-2.7.4-6.2.6-10-2.1-2.4-1.6-6.5-3.7-11.2-7.2-9.8-7.2-15.8-18-16.7-19.3-.8-1.3-6.8-9.1-6.8-17.3 0-8.3 4.3-12.3 5.8-14 1.5-1.7 3.3-2.1 4.4-2.1h3.1c1 0 2.3-.4 3.6 2.7 1.3 3.2 4.5 11 4.9 11.8.4.8.6 1.7.1 2.8-.5 1.1-2.1 3.6-3.5 5.3-.4.5-.9 1.1-.4 2.1.5 1 2.4 3.9 5.1 6.3 3.5 3.1 6.5 4.1 7.4 4.6 1 .5 1.6.4 2.2-.3.6-.7 2.7-3.1 3.4-4.2.7-1.1 1.4-1 2.4-.6 1 .4 6.4 3 7.5 3.6 1.1.5 1.8.8 2.1 1.3.3.4.3 2.5-1 6.2z"/>
</svg>
