<svg xmlns="http://www.w3.org/2000/svg" viewBox="0 0 100 100" width="192" height="192">
  <rect width="100" height="100" rx="20" fill="#25D366"/>
  <path d="M50 15C30.67 15 15 29.33 15 47c0 9.17 3.96 17.42 10.29 23.21L22 85l15.42-4.05C41.43 82.56 45.64 83 50 83c19.33 0 35-14.33 35-32S69.33 15 50 15z" fill="white"/>
  <path d="M65.5 56.5c-.8-.4-4.7-2.3-5.4-2.6-.7-.3-1.2-.4-1.7.4-.5.8-1.9 2.4-2.4 2.9-.4.5-.9.6-1.7.2-.8-.4-3.3-1.2-6.3-3.9-2.3-2.1-3.9-4.6-4.3-5.4-.4-.8 0-1.2.3-1.6.3-.3.8-.9 1.2-1.4.4-.4.5-.8.8-1.3.3-.5.1-1-.1-1.4-.2-.4-1.7-4.1-2.3-5.6-.6-1.5-1.3-1.3-1.7-1.3-.4 0-1 0-1.5 0-.5 0-1.3.2-2 1-.7.8-2.7 2.6-2.7 6.3s2.7 7.3 3.1 7.8c.4.5 5.3 8.1 12.9 11.3 7.6 3.2 7.6 2.1 8.9 2 1.3-.1 4.2-1.7 4.8-3.4.6-1.7.6-3.1.4-3.4-.2-.3-.7-.5-1.5-.9z" fill="#25D366"/>
</svg>
