<svg xmlns="http://www.w3.org/2000/svg" viewBox="0 0 100 100">
  <defs>
    <linearGradient id="bg" x1="0%" y1="0%" x2="100%" y2="100%">
      <stop offset="0%" style="stop-color:#FF4F8B"/>
      <stop offset="100%" style="stop-color:#CDB4DB"/>
    </linearGradient>
    <linearGradient id="heart" x1="0%" y1="0%" x2="100%" y2="100%">
      <stop offset="0%" style="stop-color:#fff"/>
      <stop offset="100%" style="stop-color:#FFD6E7"/>
    </linearGradient>
  </defs>
  <!-- Background circle -->
  <circle cx="50" cy="50" r="50" fill="url(#bg)"/>
  <!-- Two small circles (couple) -->
  <circle cx="35" cy="38" r="10" fill="white" opacity="0.9"/>
  <circle cx="65" cy="38" r="10" fill="white" opacity="0.9"/>
  <!-- Heart shape -->
  <path d="M50 72 C50 72 22 55 22 40 C22 32 28 26 35 26 C40 26 45 29 50 34 C55 29 60 26 65 26 C72 26 78 32 78 40 C78 55 50 72 50 72Z" fill="url(#heart)" opacity="0.95"/>
  <!-- Inner heart detail -->
  <path d="M50 65 C50 65 30 53 30 42 C30 37 34 33 39 33 C43 33 47 36 50 40 C53 36 57 33 61 33 C66 33 70 37 70 42 C70 53 50 65 50 65Z" fill="#FF4F8B" opacity="0.3"/>
</svg>
